# xmcd
#
# Track frame offsets: 
#        150
#        21375
#        36600
#        53925
#        72225
#        88050
#        109575
#        132000
#        152100
#        170400
#        191250
#        208200
#        228300
#        246825
#        269475
#        288975
#
# Disc length: 4074 seconds
#
# Revision: 2
# Processed by: cddbd v1.5.2PL0 Copyright (c) Steve Scherf et al.
# Submitted via: ExactAudioCopy v1.3
#
DISCID=eb0fe810
DTITLE=香港群星 - 鑑聽寶典 Absolute Voice Legendary CD3
DYEAR=2014
DGENRE=Pop
TTITLE0=陳百強 - 一生何求
TTITLE1=林子祥 - 似夢迷離
TTITLE2=杜德偉 - Because I Love You
TTITLE3=梁漢文 - 纏綿遊戲
TTITLE4=楊千樺 - 少女的祈禱
TTITLE5=羅敏莊 - 挑戰者
TTITLE6=葉蒨文 - 完全是你
TTITLE7=鄭秀文 - 捨不得你
TTITLE8=陳奕迅 - 與我常在
TTITLE9=許志安 - 男人最痛
TTITLE10=郭富城 - 聽風的歌
TTITLE11=梁漢文 - 衣櫃裡的男人
TTITLE12=鄭秀文 - 感情線上
TTITLE13=呂方 - 流浪花
TTITLE14=陳奕迅 - 幸福摩天輪
TTITLE15=Zen - I Remember You
EXTD=
EXTT0=
EXTT1=
EXTT2=
EXTT3=
EXTT4=
EXTT5=
EXTT6=
EXTT7=
EXTT8=
EXTT9=
EXTT10=
EXTT11=
EXTT12=
EXTT13=
EXTT14=
EXTT15=
PLAYORDER=
